<svg xmlns="http://www.w3.org/2000/svg" viewBox="0 0 1600 900"><defs><linearGradient id="sky" x1="0" y1="0" x2="1" y2="1"><stop offset="0" stop-color="#fee5b6"/><stop offset=".55" stop-color="#f5b46e"/><stop offset="1" stop-color="#315447"/></linearGradient><linearGradient id="hill" x1="0" y1="0" x2="0" y2="1"><stop offset="0" stop-color="#5f8b5a"/><stop offset="1" stop-color="#1f4938"/></linearGradient><filter id="s"><feDropShadow dx="0" dy="10" stdDeviation="8" flood-opacity=".35"/></filter><style>.house{fill:#71472f;stroke:#2b211d;stroke-width:4}.roof{fill:#243241;stroke:#171c22;stroke-width:4}.win{fill:#ffd37a;stroke:#2b211d;stroke-width:3}.blob{fill:#fff8ee;stroke:#17131c;stroke-width:5;stroke-linecap:round;stroke-linejoin:round}.line{fill:none;stroke:#17131c;stroke-width:5;stroke-linecap:round;stroke-linejoin:round}.txt{font-family:Arial,sans-serif;font-weight:800;fill:#3a2b23}.small{font-size:18px}.sign{fill:#f5dfb8;stroke:#3a2b23;stroke-width:4}</style></defs><rect width="1600" height="900" fill="url(#sky)"/><circle cx="150" cy="330" r="70" fill="#fff0b6" opacity=".65"/><path d="M0 560 C260 420 420 500 630 370 C830 245 1010 310 1220 220 C1390 150 1505 170 1600 115 L1600 900 L0 900Z" fill="url(#hill)"/><path d="M0 720 C280 575 520 730 790 555 C1110 350 1350 540 1600 330 L1600 900 L0 900Z" fill="#254b39" opacity=".95"/><path d="M110 860 C360 660 625 705 820 555 C1035 390 1285 520 1515 290" fill="none" stroke="#dfc69d" stroke-width="34" opacity=".85"/><path d="M110 860 C360 660 625 705 820 555 C1035 390 1285 520 1515 290" fill="none" stroke="#8b755a" stroke-width="4" opacity=".35"/><g filter="url(#s)"><g transform="translate(950 150) scale(1.45)"><rect class="house" x="0" y="95" width="250" height="175" rx="10"/><polygon class="roof" points="-15,105 125,10 265,105"/><rect class="win" x="30" y="130" width="80" height="105"/><rect class="win" x="135" y="130" width="85" height="105"/><rect class="sign" x="55" y="38" width="145" height="58" rx="8"/><text class="txt" x="75" y="63" font-size="24">New York</text><text class="txt" x="77" y="88" font-size="25" id="nySvgTime">10:30 PM</text></g><g transform="translate(340 520)"><rect class="house" x="0" y="70" width="230" height="165" rx="10"/><polygon class="roof" points="-20,80 115,0 250,80"/><rect class="win" x="22" y="105" width="70" height="95"/><rect class="win" x="118" y="105" width="88" height="95"/><rect class="sign" x="-35" y="145" width="70" height="50" rx="6"/><text class="txt small" x="-22" y="176">CAFE</text></g><g transform="translate(695 455)"><rect class="house" x="0" y="65" width="210" height="145" rx="9"/><polygon class="roof" points="-18,75 105,0 228,75"/><rect class="win" x="30" y="100" width="68" height="80"/><rect class="win" x="118" y="100" width="62" height="80"/></g><g transform="translate(640 250) scale(.8)"><rect class="house" x="0" y="65" width="210" height="145" rx="9"/><polygon class="roof" points="-18,75 105,0 228,75"/><rect class="win" x="30" y="100" width="68" height="80"/><rect class="win" x="118" y="100" width="62" height="80"/></g><g transform="translate(1120 555) scale(.9)"><rect class="house" x="0" y="65" width="210" height="145" rx="9"/><polygon class="roof" points="-18,75 105,0 228,75"/><rect class="win" x="30" y="100" width="68" height="80"/><rect class="win" x="118" y="100" width="62" height="80"/></g></g><g><circle cx="1165" cy="420" r="45" class="blob"/><path d="M1150 455 Q1165 470 1180 455" class="line"/><circle cx="1152" cy="410" r="4" fill="#17131c"/><circle cx="1178" cy="410" r="4" fill="#17131c"/><circle cx="1150" cy="410" r="14" class="line"/><circle cx="1180" cy="410" r="14" class="line"/><path d="M1164 424 q10 15 22 0" class="line"/><path d="M1115 503 h110 v22 h-110z" fill="#5c3d2e"/><path d="M1130 503 q35-35 80 0" fill="#f7ebd8" stroke="#17131c" stroke-width="4"/><rect x="1195" y="455" width="35" height="45" fill="#ffe2a6" stroke="#17131c" stroke-width="4"/><path d="M1128 475 h55" class="line"/><path d="M1138 490 h45" class="line"/><text x="1075" y="335" class="txt" font-size="30">뉴욕 시간</text></g><g><circle cx="325" cy="735" r="39" class="blob"/><path d="M294 773 q35 35 72 0" class="blob"/><circle cx="310" cy="725" r="4" fill="#17131c"/><circle cx="337" cy="725" r="4" fill="#17131c"/><path d="M320 740 q12 18 25 0" class="line"/><rect x="350" y="760" width="72" height="45" fill="#d7e5ed" stroke="#17131c" stroke-width="4" rx="4"/><text x="388" y="785" font-size="20">⌨</text></g><g><circle cx="530" cy="735" r="34" class="blob"/><path d="M504 767 q30 25 62 0" class="blob"/><circle cx="518" cy="727" r="4" fill="#17131c"/><circle cx="542" cy="727" r="4" fill="#17131c"/><path d="M525 740 q10 15 22 0" class="line"/><rect x="555" y="758" width="70" height="40" fill="#d7e5ed" stroke="#17131c" stroke-width="4" rx="4"/><circle cx="580" cy="807" r="7" fill="#17131c"/></g><g><circle cx="792" cy="662" r="34" class="blob"/><path d="M765 695 q30 28 62 0" class="blob"/><circle cx="781" cy="653" r="4" fill="#17131c"/><circle cx="805" cy="653" r="4" fill="#17131c"/><path d="M788 666 q10 15 22 0" class="line"/><circle cx="870" cy="662" r="34" class="blob"/><path d="M843 695 q30 28 62 0" class="blob"/><circle cx="859" cy="653" r="4" fill="#17131c"/><circle cx="883" cy="653" r="4" fill="#17131c"/><path d="M866 666 q10 15 22 0" class="line"/><text x="822" y="623" font-size="40" fill="#ff6b96">♥</text><rect x="805" y="705" width="95" height="34" rx="15" fill="#8a5a3e" stroke="#17131c" stroke-width="4"/></g><g><circle cx="1005" cy="710" r="36" class="blob"/><path d="M978 745 q35 30 68 0" class="blob"/><circle cx="994" cy="700" r="4" fill="#17131c"/><circle cx="1019" cy="700" r="4" fill="#17131c"/><path d="M1001 715 q10 15 22 0" class="line"/><rect x="1037" y="705" width="27" height="42" rx="8" fill="#ffc76d" stroke="#17131c" stroke-width="4"/></g><g><circle cx="1245" cy="735" r="35" class="blob"/><path d="M1218 770 q30 25 62 0" class="blob"/><circle cx="1233" cy="727" r="4" fill="#17131c"/><circle cx="1257" cy="727" r="4" fill="#17131c"/><path d="M1240 740 q10 15 22 0" class="line"/><path d="M1200 790 q60 35 135 0" fill="#6a9d56" stroke="#17131c" stroke-width="4"/><path d="M1280 765 q40-30 80-20" stroke="#f5cf5f" stroke-width="9" fill="none"/><path d="M1280 765 q40-30 80-20" stroke="#17131c" stroke-width="3" fill="none"/></g><g><circle cx="1375" cy="580" r="35" class="blob"/><path d="M1348 615 q30 25 62 0" class="blob"/><circle cx="1363" cy="572" r="4" fill="#17131c"/><circle cx="1387" cy="572" r="4" fill="#17131c"/><path d="M1370 586 q10 15 22 0" class="line"/><rect x="1330" y="630" width="105" height="42" rx="10" fill="#a67856" stroke="#17131c" stroke-width="4"/><rect x="1360" y="605" width="55" height="40" fill="#f8e8c8" stroke="#17131c" stroke-width="4"/></g><g><circle cx="965" cy="535" r="34" class="blob"/><path d="M940 568 q30 25 62 0" class="blob"/><circle cx="955" cy="527" r="4" fill="#17131c"/><circle cx="979" cy="527" r="4" fill="#17131c"/><path d="M962 540 q10 15 22 0" class="line"/><circle cx="957" cy="610" r="32" fill="none" stroke="#17131c" stroke-width="5"/><circle cx="1020" cy="610" r="32" fill="none" stroke="#17131c" stroke-width="5"/><path d="M990 585 l-25 25 m25-25 l30 25" class="line" stroke-width="4"/><path d="M980 565 l45 30" class="line" stroke-width="4"/></g><g opacity=".55"><circle cx="715" cy="405" r="23" class="blob"/><path d="M698 428 q22 18 44 0" class="blob"/><circle cx="708" cy="399" r="3" fill="#17131c"/><circle cx="724" cy="399" r="3" fill="#17131c"/><path d="M713 409 q8 10 16 0" class="line" stroke-width="3"/><circle cx="1085" cy="295" r="23" class="blob"/><path d="M1068 318 q22 18 44 0" class="blob"/><circle cx="1078" cy="289" r="3" fill="#17131c"/><circle cx="1094" cy="289" r="3" fill="#17131c"/><path d="M1083 299 q8 10 16 0" class="line" stroke-width="3"/><circle cx="1465" cy="145" r="23" class="blob"/><path d="M1448 168 q22 18 44 0" class="blob"/></g><g opacity=".35"><path d="M80 250 q60-30 120 0" stroke="#fff8e0" stroke-width="6" fill="none"/><path d="M120 290 q80-40 160 0" stroke="#fff8e0" stroke-width="5" fill="none"/><path d="M250 210 q80-40 160 0" stroke="#fff8e0" stroke-width="4" fill="none"/></g></svg>